# xmcd
#
# Track frame offsets: 
#        150
#        14491
#        28444
#        42676
#        57168
#        70153
#        83541
#        97348
#        112711
#        126170
#        140689
#        154104
#        168668
#        183302
#        198202
#        211726
#        225843
#        238333
#
# Disc length: 3348 seconds
#
# Revision: 1
# Processed by: cddbd v1.5.2PL0 Copyright (c) Steve Scherf et al.
# Submitted via: ExactAudioCopy v0.95b2
#
DISCID=fa0d1212
DTITLE=Lonnie Johnson - The Essential [CD 2)
DYEAR=1900
DGENRE=Blues
TTITLE0=She's Making Whoopie In Hell Tonight
TTITLE1=Uncle Ned Don't Lose Your Head
TTITLE2=Woke Up With The Blues In My Fingers
TTITLE3=Racketeers Blues
TTITLE4=Memphis Stomp (w Johnson, Hayes and Prater)
TTITLE5=Jersey Belle Blues
TTITLE6=Unkind Mama (w Raymond Boyd)
TTITLE7=Steady Grind (w Victoria Spivey)
TTITLE8=Hot Fingers
TTITLE9=The New Fallin' Rain Blues
TTITLE10=Blues Is Only A Ghost
TTITLE11=No More Troubles Now
TTITLE12=Garter Snake Blues (w Victoria Spivey)
TTITLE13=Let All Married Woman Alone
TTITLE14=6/88 Glide
TTITLE15=To Do This You Got To Know How
TTITLE16=Burying Ground Blues (w Mooch Richardson)
TTITLE17=Away Down In The Alley (w Eddie Lang)
EXTD=
EXTT0=
EXTT1=
EXTT2=
EXTT3=
EXTT4=
EXTT5=
EXTT6=
EXTT7=
EXTT8=
EXTT9=
EXTT10=
EXTT11=
EXTT12=
EXTT13=
EXTT14=
EXTT15=
EXTT16=
EXTT17=
PLAYORDER=
